<?xml version="1.0" encoding="utf-8"?>
<!-- Generator: Adobe Illustrator 26.5.2, SVG Export Plug-In . SVG Version: 6.00 Build 0)  -->
<svg version="1.1" id="Layer_1" xmlns="http://www.w3.org/2000/svg" xmlns:xlink="http://www.w3.org/1999/xlink" x="0px" y="0px"
	 viewBox="0 0 2392.4 314.1" style="enable-background:new 0 0 2392.4 314.1;" xml:space="preserve">
<style type="text/css">
	.st0{display:none;}
	.st1{display:inline;fill:#1A202C;}
	.st2{fill:#FFFFFF;}
	.st3{fill:#63B3ED;}
</style>
<g id="Background" class="st0">
	<rect x="-66.4" y="-64.9" class="st1" width="2506.2" height="444.3"/>
</g>
<g id="wordmark">
	<path class="st2" d="M1229.8,87.2h-151.3l-14,14.4v110.8l14.7,14.8h151.2l13.9-13.9V101.7L1229.8,87.2z M1206.7,196.8h-105v-79.2
		h105V196.8z"/>
	<polygon class="st2" points="893.9,87.2 893.9,227.2 1036.8,227.2 1036.8,196.6 931,196.6 931,87.2 	"/>
	<path class="st2" d="M789.3,87.2h-50.9l-76.8,127.7v12.3H700l12.5-24.4h102.7l13,24.4h37.9v-12.1L789.3,87.2z M728.6,172.6
		l29.2-54.6h11.8l29.2,54.6H728.6z"/>
	<polygon class="st2" points="454.5,87.2 454.5,227.2 491.5,227.2 491.5,171.6 596.2,171.6 596.2,227.2 633.4,227.2 633.4,87.2 
		595.9,87.2 595.9,141.2 491.7,141.2 491.7,87.2 	"/>
	<path class="st2" d="M1546.6,196.8v-95.2l-14.4-14.4h-151.5l-14.1,14.4v110.8l14.8,14.8H1554l13.6-13.6v-16.9L1546.6,196.8
		L1546.6,196.8z M1509.2,196.8H1404v-79.2h105.1L1509.2,196.8L1509.2,196.8z"/>
	<polygon class="st2" points="1600,87.2 1637.4,87.2 1637.4,196.8 1735.6,196.8 1735.6,87.2 1773,87.2 1773,212.6 1758.3,227.2 
		1613.9,227.2 1599.9,213.3 	"/>
	<polygon class="st2" points="1806.3,87.2 1970.1,87.2 1970.1,114.7 1844.1,114.7 1844.1,145.5 1961.3,145.5 1961.3,166.4 
		1843.8,166.4 1843.8,199.3 1970.1,199.3 1970.1,227.2 1820,227.2 1805.7,213 	"/>
	<path class="st2" d="M2177.8,157.1v-55.5l-14.2-14.3l-159.8-0.1v140h37.4v-56.5h25.4l60.4,56.5h44v-9l-57.9-47.5h51L2177.8,157.1z
		 M2140.8,146h-99.9v-28.3h99.9V146z"/>
	<polygon class="st2" points="2204.4,87.2 2204.4,95.9 2279.7,181 2279.7,227.2 2317.4,227.2 2317.4,180.4 2392.4,95.9 2392.4,87.2 
		2352.5,87.2 2298.4,151 2243.8,87.2 	"/>
</g>
<g id="Logo">
	<path class="st0" d="M116.2,335.2h57.5l33.9-24.9l41.7-22.3l4.9-12.1l33.2-7.1l6.6-10.2l18-9.2l-6.4-72l-14.1-5.4v-41
		c0,0,9.4-22,11.9-67.4c0,0-37.4-28.3-47.7-33.2c0,0-15-47.4-87.3-51l-4.4,8.1h-38.5l-3.7-8.1c0,0-67.9,1.3-86.8,50.3
		c0,0-35.6,22.3-48.3,34.4c0,0,1,36.6,11.2,66v42.6l-13.6,5.1l-6.3,71.7l18.4,9.4l6.5,10.2l32.5,7l5.1,12.1l44.8,24.2L116.2,335.2z"
		/>
	<polygon class="st3" points="117.9,207.3 171.9,207.3 171.9,202.2 166.6,195.2 123.4,195.2 117.9,201.3 	"/>
	<polygon class="st3" points="26.5,206.3 26.5,234.7 20.2,234.7 16,230.1 16,210.6 19.9,206.3 	"/>
	<polygon class="st3" points="263.1,206.3 263.1,234.7 269.4,234.7 273.7,230.1 273.7,210.6 269.7,206.3 	"/>
	<path class="st3" d="M283.6,187.9l-25.8-7.2c-12.8,17.7-29.6,29.6-29.6,29.6c-28.1,11.6-86.4,11.9-86.4,11.9
		C86.7,219.8,65.2,211,65.2,211c-17-9.4-33-30.3-33-30.3l-27.1,7.5C2.4,198.6,0,234.7,0,234.7l9.4,15.5l40.3,11.2
		c9,23.7,42.2,31.7,42.2,31.7l15.1,13.3l-9.7-43.8c-49-28.8-62-50.7-62-50.7l2.6,40.1l-22.6-5.9l-8-14c-0.8-25.4,2.9-34,2.9-34
		c9.9-9.7,24.7-7.7,24.7-7.7c30.5,41.7,75.1,61.5,75.1,61.5l12.1,62.2h45.6l13.3-62.5c55.3-30,74.9-62,74.9-62c19.2-0.2,24,8,24,8
		c4.6,8.7,3.7,33.9,3.7,33.9l-8.2,14.5l-22.8,6.1l2-40c-19.4,26.4-61.5,49.2-61.5,49.2l-9.5,44.4l17-13.1
		c23.8-7.5,33.2-19.9,33.2-19.9l6.1-11.1l40.9-11.7l9.7-15.3C290,201.9,283.6,187.9,283.6,187.9z M71.1,263.3L95,276.1
		c3.2,9.2-6,11.1-6,11.1c-20.9-7.3-25.2-16.7-25.2-16.7C61.1,260.9,71.1,263.3,71.1,263.3z M226.3,270.5c0,0-4.3,9.4-25.2,16.7
		c0,0-9.2-1.9-6-11.1l23.8-12.8C219,263.3,229,260.9,226.3,270.5z"/>
	<path class="st3" d="M37.8,98.1h-9.7c0,0-9.2,8.4-6.9,64l4.5-3.2L37.8,98.1z"/>
	<path class="st3" d="M251.4,98.1h9.7c0,0,9.2,8.4,6.9,64l-4.5-3.2L251.4,98.1z"/>
	<rect x="116.1" y="62.2" class="st3" width="57.7" height="13.1"/>
	<rect x="118" y="6.2" class="st3" width="54.1" height="44.9"/>
	<path class="st3" d="M5.9,72.4l3.9,23.1l6.5-10.6c0,0,25.4-7.3,73.9-9.7l-9.7-18.9C80.5,56.4,35,57.2,5.9,72.4z"/>
	<path class="st3" d="M284.1,72.4l-3.9,23.1l-6.5-10.6c0,0-25.4-7.3-73.9-9.7l9.7-18.9C209.5,56.4,255,57.2,284.1,72.4z"/>
	<polygon class="st3" points="188.1,40.9 197.3,51.2 188.1,64.5 	"/>
	<path class="st3" d="M202.2,37.5l2.4,8c0,0,28.1-1,55.3,6.5C259.9,51.9,248.1,39.5,202.2,37.5z"/>
	<path class="st3" d="M187,0l2.4,23c0,0,25.2-0.9,38.3,3.2C227.7,26.2,225.2,3.4,187,0z"/>
	<polygon class="st3" points="101.5,40.9 92.3,51.2 101.5,64.5 	"/>
	<path class="st3" d="M87.4,37.5l-2.4,8c0,0-28.1-1-55.3,6.5C29.7,51.9,41.4,39.5,87.4,37.5z"/>
	<path class="st3" d="M102.5,0l-2.4,23c0,0-25.2-0.9-38.3,3.2C61.9,26.2,64.4,3.4,102.5,0z"/>
	<path class="st3" d="M61.8,94.1c0,0,96.5-7.8,166.5,0c0,0,20.4,27.9,16.5,73.4c0,0-1.2,10.6-24.7,28.8v-57.2h-32v60.8h-1.9l-6.1-7
		V110h-32.2v75.2h-8V128h-32v66.4l-4.4,5.4h-3.6v-44.9H68.1v39.3c0,0-14.8-7.7-23.1-28.6C44.9,165.6,42.2,122.2,61.8,94.1z"/>
</g>
</svg>
