<?xml version="1.0" encoding="utf-8"?>
<!-- Generator: Adobe Illustrator 26.5.2, SVG Export Plug-In . SVG Version: 6.00 Build 0)  -->
<svg version="1.1" id="Layer_1" xmlns="http://www.w3.org/2000/svg" xmlns:xlink="http://www.w3.org/1999/xlink" x="0px" y="0px"
	 viewBox="0 0 889.5 962" style="enable-background:new 0 0 889.5 962;" xml:space="preserve">
<style type="text/css">
	.st0{display:none;}
	.st1{fill:#63B3ED;}
</style>
<path class="st0" d="M355.9,1026.2H532L635.7,950l127.7-68.3l15.1-37l101.6-21.9l20.3-31.3l55-28.1L935.9,543l-43.3-16.7V400.7
	c0,0,28.7-67.2,36.5-206.4c0,0-114.6-86.5-145.9-101.6c0,0-45.9-145.1-267.3-156.2l-13.5,24.9H384.6l-11.5-24.9
	c0,0-207.9,4-265.8,154.1c0,0-108.9,68.3-148,105.3c0,0,3.1,112,34.4,202.2v130.3L-47.9,544l-19.3,219.9l56.3,28.7l19.8,31.3
	l99.5,21.4l15.6,37l137,74L355.9,1026.2z"/>
<polygon class="st1" points="361.1,634.7 526.3,634.7 526.3,619.1 510.1,597.7 377.8,597.7 361.1,616.2 "/>
<polygon class="st1" points="81.3,631.6 81.3,718.6 62,718.6 49,704.5 49,644.6 61,631.6 "/>
<polygon class="st1" points="805.5,631.6 805.5,718.6 824.8,718.6 837.9,704.5 837.9,644.6 825.9,631.6 "/>
<path class="st1" d="M868.3,575.3l-78.9-21.9c-39.1,54.2-90.7,90.7-90.7,90.7c-86,35.4-264.6,36.5-264.6,36.5
	c-168.7-7.3-234.6-34.4-234.6-34.4c-52.1-28.7-101.1-92.8-101.1-92.8l-82.8,22.9C7.3,608.1,0,718.6,0,718.6L28.7,766l123.5,34.4
	c27.6,72.4,129.2,96.9,129.2,96.9l46.4,40.7L298.1,804C148,716,108.4,648.8,108.4,648.8l7.8,122.7l-69.3-18l-24.5-42.7
	c-2.6-77.6,8.8-104.2,8.8-104.2c30.2-29.7,75.6-23.5,75.6-23.5c93.3,127.7,229.8,188.4,229.8,188.4l37,190.5h139.7l40.6-191.2
	C723.3,679,783.2,581,783.2,581c58.9-0.5,73.5,24.5,73.5,24.5c14.1,26.6,11.4,103.7,11.4,103.7l-25,44.3l-69.8,18.8l6.3-122.5
	c-59.4,80.8-188.1,150.6-188.1,150.6l-29.2,136l52.1-40.1c73-22.9,101.6-61,101.6-61l18.8-33.9l125.1-35.9l29.7-46.9
	C887.9,618,868.3,575.3,868.3,575.3z M217.8,806.1l73,39.1c9.9,28.1-18.2,33.9-18.2,33.9c-64.1-22.4-77.1-51.1-77.1-51.1
	C187.1,798.8,217.8,806.1,217.8,806.1z M693,828c0,0-13,28.7-77.1,51.1c0,0-28.2-5.7-18.2-33.9l73-39.1
	C670.5,806.1,701.3,798.8,693,828z"/>
<path class="st1" d="M115.8,300.3H86.1c0,0-28.1,25.8-21.1,195.8l13.7-9.8L115.8,300.3z"/>
<path class="st1" d="M769.8,300.3h29.7c0,0,28.1,25.8,21.1,195.8l-13.7-9.8L769.8,300.3z"/>
<rect x="355.6" y="190.3" class="st1" width="176.7" height="40.1"/>
<rect x="361.2" y="19.1" class="st1" width="165.5" height="137.6"/>
<path class="st1" d="M18.2,221.5l12,70.9L50,260c0,0,77.6-22.4,226.2-29.7l-29.7-57.8C246.5,172.5,107.3,175.1,18.2,221.5z"/>
<path class="st1" d="M869.7,221.5l-12,70.9L837.9,260c0,0-77.6-22.4-226.2-29.7l29.7-57.8C641.5,172.5,780.6,175.1,869.7,221.5z"/>
<polygon class="st1" points="575.8,125.1 603.9,156.7 575.8,197.5 "/>
<path class="st1" d="M619.1,114.6l7.3,24.5c0,0,86-3.1,169.4,19.8C795.7,158.9,759.8,120.9,619.1,114.6z"/>
<path class="st1" d="M572.7,0l7.3,70.3c0,0,77.1-2.6,117.2,9.9C697.2,80.2,689.4,10.4,572.7,0z"/>
<polygon class="st1" points="310.8,125.1 282.7,156.7 310.8,197.5 "/>
<path class="st1" d="M267.6,114.6l-7.3,24.5c0,0-86-3.1-169.4,19.8C90.9,158.9,126.9,120.9,267.6,114.6z"/>
<path class="st1" d="M314,0l-7.3,70.3c0,0-77.1-2.6-117.2,9.9C189.4,80.2,197.2,10.4,314,0z"/>
<path class="st1" d="M189.2,288.2c0,0,295.5-24,509.6,0c0,0,62.5,85.5,50.5,224.6c0,0-3.6,32.3-75.6,88.1V425.7h-98v186h-5.7
	l-18.8-21.4V336.6h-98.5V567h-24.5V391.9h-98v203.2l-13.5,16.7h-10.9V474.2h-97.4v120.4c0,0-45.3-23.4-70.9-87.5
	C137.6,507,129.2,374.1,189.2,288.2z"/>
</svg>
